<svg width="153" height="40" viewBox="0 0 153 40" fill="none" xmlns="http://www.w3.org/2000/svg">
<rect width="153" height="40" rx="20" fill="#E5A637"/>
<path d="M40.72 25V21.92H39.14V23.42H33.48V12.58H35.14V11H30.7V12.58H31.82V23.42H30.7V25H40.72ZM46.1258 18.94C46.4058 18.94 46.6591 19.0133 46.8858 19.16C47.1258 19.2933 47.3391 19.4733 47.5258 19.7C46.8991 19.9267 46.2724 20.16 45.6458 20.4C45.0324 20.6267 44.4124 20.8533 43.7858 21.08C43.7991 20.8 43.8524 20.54 43.9458 20.3C44.0524 20.06 44.1858 19.8467 44.3458 19.66C44.5591 19.4333 44.8124 19.26 45.1058 19.14C45.4124 19.0067 45.7524 18.94 46.1258 18.94ZM48.6658 24.12L47.6458 22.92C47.4458 23.1333 47.2191 23.2933 46.9658 23.4C46.7124 23.5067 46.4324 23.56 46.1258 23.56C45.7124 23.56 45.3391 23.48 45.0058 23.32C44.6858 23.1467 44.4258 22.92 44.2258 22.64C45.1324 22.3067 46.0324 21.9733 46.9258 21.64C47.8324 21.3067 48.7391 20.9733 49.6458 20.64C49.5258 20.16 49.3524 19.72 49.1258 19.32C48.8991 18.9067 48.6391 18.5533 48.3458 18.26C48.0391 17.9667 47.6924 17.74 47.3058 17.58C46.9324 17.4067 46.5391 17.32 46.1258 17.32C45.5658 17.32 45.0391 17.4267 44.5458 17.64C44.0658 17.84 43.6458 18.1133 43.2858 18.46C42.9258 18.82 42.6391 19.24 42.4258 19.72C42.2258 20.2 42.1258 20.7067 42.1258 21.24C42.1258 21.7867 42.2258 22.3 42.4258 22.78C42.6391 23.2467 42.9258 23.66 43.2858 24.02C43.6458 24.38 44.0658 24.6667 44.5458 24.88C45.0391 25.08 45.5658 25.18 46.1258 25.18C46.6324 25.18 47.0991 25.0867 47.5258 24.9C47.9524 24.7133 48.3324 24.4533 48.6658 24.12ZM55.9697 25V23.42H54.4697V19.12H56.4297V17.5H54.4697V12.62H52.8097V17.5H51.1297V19.12H52.8097V25H55.9697ZM59.5289 10.78C59.3556 10.8067 59.1822 10.8333 59.0089 10.86C58.8356 10.8733 58.6622 10.8933 58.4889 10.92C58.5822 11.3867 58.5622 11.82 58.4289 12.22C58.3089 12.6067 58.1089 12.9333 57.8289 13.2L58.6489 13.68C59.0222 13.3067 59.2889 12.8733 59.4489 12.38C59.6089 11.8733 59.6356 11.34 59.5289 10.78ZM65.9302 24.26C66.1168 24.0067 66.2435 23.7467 66.3102 23.48C66.3902 23.2133 66.4302 22.9867 66.4302 22.8C66.4302 22.3867 66.3568 22.0467 66.2102 21.78C66.0635 21.5 65.8768 21.2667 65.6502 21.08C65.4235 20.9067 65.1768 20.76 64.9102 20.64C64.6435 20.52 64.3968 20.4133 64.1702 20.32C63.9302 20.2267 63.7235 20.1333 63.5502 20.04C63.3768 19.9333 63.2768 19.8 63.2502 19.64C63.2368 19.5333 63.2435 19.44 63.2702 19.36C63.2968 19.2667 63.3435 19.1867 63.4102 19.12C63.4768 19.0667 63.5635 19.0267 63.6702 19C63.7768 18.96 63.9035 18.94 64.0502 18.94C64.1568 18.94 64.2568 18.9533 64.3502 18.98C64.4435 18.9933 64.5435 19.0133 64.6502 19.04V19.9H66.1302V18.16C65.9835 18 65.8102 17.8667 65.6102 17.76C65.4235 17.6533 65.2302 17.5667 65.0302 17.5C64.8302 17.4333 64.6302 17.3867 64.4302 17.36C64.2435 17.3333 64.0835 17.32 63.9502 17.32C63.7235 17.32 63.4702 17.36 63.1902 17.44C62.9102 17.52 62.6502 17.6533 62.4102 17.84C62.1702 18.0133 61.9702 18.24 61.8102 18.52C61.6502 18.8 61.5702 19.1467 61.5702 19.56C61.5702 20.0267 61.6502 20.4 61.8102 20.68C61.9702 20.96 62.1702 21.1733 62.4102 21.32C62.6635 21.48 62.9302 21.6067 63.2102 21.7C63.4902 21.78 63.7435 21.8667 63.9702 21.96C64.2102 22.04 64.3968 22.1467 64.5302 22.28C64.6768 22.4 64.7502 22.58 64.7502 22.82C64.7502 22.9533 64.7235 23.0667 64.6702 23.16C64.6302 23.24 64.5768 23.3067 64.5102 23.36C64.4168 23.4267 64.3102 23.4733 64.1902 23.5C64.0835 23.5267 63.9768 23.54 63.8702 23.54C63.6435 23.54 63.4502 23.5333 63.2902 23.52C63.1435 23.4933 62.9902 23.4467 62.8302 23.38V22.6H61.3502V24.34C61.6168 24.6333 61.9768 24.8467 62.4302 24.98C62.8835 25.1 63.3568 25.16 63.8502 25.16C64.3835 25.16 64.8168 25.0733 65.1502 24.9C65.4835 24.7267 65.7435 24.5133 65.9302 24.26ZM78.6669 25C79.2402 25 79.8002 24.9267 80.3469 24.78C80.8935 24.62 81.3802 24.3867 81.8069 24.08C82.2202 23.7867 82.5535 23.42 82.8069 22.98C83.0602 22.5267 83.1869 22 83.1869 21.4C83.1869 20.92 83.1069 20.4867 82.9469 20.1C82.7869 19.7133 82.5802 19.3733 82.3269 19.08C82.0602 18.7867 81.7469 18.5467 81.3869 18.36C81.0402 18.1733 80.6802 18.04 80.3069 17.96C81.1069 17.7333 81.7002 17.3067 82.0869 16.68C82.4869 16.0533 82.6869 15.3267 82.6869 14.5C82.6869 13.8867 82.5802 13.36 82.3669 12.92C82.1535 12.4667 81.8602 12.1 81.4869 11.82C81.1002 11.54 80.6335 11.3333 80.0869 11.2C79.5535 11.0667 78.9602 11 78.3069 11H73.7469V12.58H74.6469V23.42H73.7469V25H78.6669ZM76.3069 18.74H78.2469C78.6602 18.74 79.0669 18.7867 79.4669 18.88C79.8669 18.9733 80.2202 19.1133 80.5269 19.3C80.8202 19.5 81.0602 19.7533 81.2469 20.06C81.4335 20.3667 81.5269 20.7267 81.5269 21.14C81.5269 21.5267 81.4469 21.86 81.2869 22.14C81.1269 22.42 80.9135 22.6533 80.6469 22.84C80.3669 23.04 80.0469 23.1867 79.6869 23.28C79.3269 23.3733 78.9402 23.42 78.5269 23.42H76.3069V18.74ZM76.3069 12.58H78.4269C78.7869 12.58 79.1202 12.62 79.4269 12.7C79.7335 12.7667 80.0002 12.8733 80.2269 13.02C80.4802 13.1933 80.6735 13.4267 80.8069 13.72C80.9535 14 81.0269 14.3467 81.0269 14.76C81.0269 15.48 80.7935 16.06 80.3269 16.5C79.8735 16.94 79.2535 17.16 78.4669 17.16H76.3069V12.58ZM88.5867 18.94C88.8667 18.94 89.1201 19.0133 89.3467 19.16C89.5867 19.2933 89.8001 19.4733 89.9867 19.7C89.3601 19.9267 88.7334 20.16 88.1067 20.4C87.4934 20.6267 86.8734 20.8533 86.2467 21.08C86.2601 20.8 86.3134 20.54 86.4067 20.3C86.5134 20.06 86.6467 19.8467 86.8067 19.66C87.0201 19.4333 87.2734 19.26 87.5667 19.14C87.8734 19.0067 88.2134 18.94 88.5867 18.94ZM91.1267 24.12L90.1067 22.92C89.9067 23.1333 89.6801 23.2933 89.4267 23.4C89.1734 23.5067 88.8934 23.56 88.5867 23.56C88.1734 23.56 87.8001 23.48 87.4667 23.32C87.1467 23.1467 86.8867 22.92 86.6867 22.64C87.5934 22.3067 88.4934 21.9733 89.3867 21.64C90.2934 21.3067 91.2001 20.9733 92.1067 20.64C91.9867 20.16 91.8134 19.72 91.5867 19.32C91.3601 18.9067 91.1001 18.5533 90.8067 18.26C90.5001 17.9667 90.1534 17.74 89.7667 17.58C89.3934 17.4067 89.0001 17.32 88.5867 17.32C88.0267 17.32 87.5001 17.4267 87.0067 17.64C86.5267 17.84 86.1067 18.1133 85.7467 18.46C85.3867 18.82 85.1001 19.24 84.8867 19.72C84.6867 20.2 84.5867 20.7067 84.5867 21.24C84.5867 21.7867 84.6867 22.3 84.8867 22.78C85.1001 23.2467 85.3867 23.66 85.7467 24.02C86.1067 24.38 86.5267 24.6667 87.0067 24.88C87.5001 25.08 88.0267 25.18 88.5867 25.18C89.0934 25.18 89.5601 25.0867 89.9867 24.9C90.4134 24.7133 90.7934 24.4533 91.1267 24.12ZM94.4506 28.8C94.8506 29.08 95.3306 29.3467 95.8906 29.6C96.4506 29.8667 97.0306 30 97.6306 30C98.1906 30 98.7106 29.9 99.1906 29.7C99.6706 29.5 100.091 29.2267 100.451 28.88C100.811 28.5467 101.091 28.1467 101.291 27.68C101.504 27.2267 101.611 26.7333 101.611 26.2V19.08H103.131V17.5H100.231C100.204 17.6867 100.184 17.8533 100.171 18C100.157 18.1467 100.151 18.2933 100.151 18.44C99.9906 18.1867 99.684 17.94 99.2306 17.7C98.7906 17.4467 98.2506 17.32 97.6106 17.32C97.0506 17.32 96.524 17.4267 96.0306 17.64C95.5373 17.8533 95.1106 18.14 94.7506 18.5C94.3906 18.86 94.104 19.28 93.8906 19.76C93.6906 20.24 93.5906 20.74 93.5906 21.26C93.5906 21.7933 93.6906 22.3 93.8906 22.78C94.104 23.2467 94.3906 23.6533 94.7506 24C95.1106 24.36 95.5373 24.6467 96.0306 24.86C96.524 25.06 97.0506 25.16 97.6106 25.16C97.9706 25.16 98.2973 25.1267 98.5906 25.06C98.884 24.9933 99.1373 24.9067 99.3506 24.8C99.5106 24.72 99.6506 24.64 99.7706 24.56C99.8906 24.4667 99.9706 24.3867 100.011 24.32C99.984 24.4 99.964 24.4867 99.9506 24.58C99.9506 24.6733 99.9506 24.7333 99.9506 24.76V25.94C99.9506 26.2733 99.8906 26.58 99.7706 26.86C99.664 27.1533 99.504 27.4 99.2906 27.6C99.0773 27.8133 98.824 27.98 98.5306 28.1C98.2506 28.22 97.9373 28.28 97.5906 28.28C97.204 28.28 96.8306 28.1867 96.4706 28C96.124 27.8267 95.8173 27.64 95.5506 27.44L94.4506 28.8ZM97.6106 18.94C97.9173 18.94 98.204 18.9867 98.4706 19.08C98.7373 19.1733 98.9706 19.3 99.1706 19.46C99.4106 19.6733 99.5973 19.9333 99.7306 20.24C99.8773 20.5333 99.9506 20.8667 99.9506 21.24C99.9506 21.56 99.8973 21.86 99.7906 22.14C99.684 22.42 99.5306 22.66 99.3306 22.86C99.1306 23.0733 98.884 23.2467 98.5906 23.38C98.2973 23.5 97.9706 23.56 97.6106 23.56C97.2773 23.56 96.9706 23.5067 96.6906 23.4C96.424 23.2933 96.184 23.1467 95.9706 22.96C95.7573 22.7467 95.584 22.4933 95.4506 22.2C95.3306 21.9067 95.2706 21.5867 95.2706 21.24C95.2706 20.9333 95.3173 20.6467 95.4106 20.38C95.504 20.1133 95.644 19.88 95.8306 19.68C96.0306 19.4533 96.284 19.2733 96.5906 19.14C96.8973 19.0067 97.2373 18.94 97.6106 18.94ZM108.968 25V23.42H107.588V17.5H104.528V19.08H105.928V23.42H104.528V25H108.968ZM107.808 14.6C107.808 14.2933 107.701 14.04 107.488 13.84C107.275 13.64 107.041 13.54 106.788 13.54C106.521 13.54 106.281 13.64 106.068 13.84C105.855 14.04 105.748 14.2933 105.748 14.6C105.748 14.9067 105.855 15.16 106.068 15.36C106.281 15.5467 106.521 15.64 106.788 15.64C107.041 15.64 107.275 15.5467 107.488 15.36C107.701 15.16 107.808 14.9067 107.808 14.6ZM114.808 25V23.42H113.548V21.36C113.548 21.0133 113.621 20.6933 113.768 20.4C113.915 20.1067 114.108 19.8533 114.348 19.64C114.588 19.4267 114.861 19.26 115.168 19.14C115.488 19.02 115.821 18.96 116.168 18.96C116.675 18.9867 117.041 19.1333 117.268 19.4C117.508 19.6533 117.641 19.96 117.668 20.32V23.42H116.128V25H120.568V23.42H119.328V19.56C119.301 18.8933 119.061 18.3533 118.608 17.94C118.155 17.5267 117.535 17.32 116.748 17.32C116.028 17.32 115.368 17.5133 114.768 17.9C114.181 18.2733 113.755 18.78 113.488 19.42C113.461 19.1 113.435 18.8133 113.408 18.56C113.395 18.2933 113.375 18 113.348 17.68V17.5H110.568V19.08H111.888V23.42H110.368V25H114.808Z" fill="white"/>
</svg>
